<?xml version="1.0" encoding="UTF-8"?>
<svg width="172px" height="200px" viewBox="0 0 172 200" version="1.1" xmlns="http://www.w3.org/2000/svg" xmlns:xlink="http://www.w3.org/1999/xlink">
    <!-- Generator: Sketch 55.2 (78181) - https://sketchapp.com -->
    <title>形状@1x</title>
    <desc>Created with Sketch.</desc>
    <g id="页面1" stroke="none" stroke-width="1" fill="none" fill-rule="evenodd">
        <g id="android" transform="translate(0.257812, 0.000000)" fill="#4F5663" fill-rule="nonzero">
            <path d="M25.7421875,77.1875 L25.7421875,129.0625 C25.7421875,135.9375 20.1171875,141.5625 13.2421875,141.5625 C6.3671875,141.5625 0.1171875,135.9375 0.1171875,129.0625 L0.1171875,77.1875 C0.1171875,70.3125 6.9921875,64.6875 13.2421875,64.6875 C20.1171875,65.3125 25.7421875,70.3125 25.7421875,77.1875 Z M30.7421875,146.875 C30.7421875,154.375 36.3671875,160 43.8671875,160 L52.6171875,160 L52.6171875,187.5 C52.6171875,203.75 76.9921875,203.75 76.9921875,187.5 L76.9921875,160 L93.8671875,160 L93.8671875,187.5 C93.8671875,203.75 118.867188,203.75 118.867188,187.5 L118.867188,160 L127.617188,160 C135.117187,160 140.742188,154.375 140.742188,146.875 L140.742188,67.1875 L30.7421875,67.1875 L30.7421875,146.875 Z M141.367187,62.8125 L30.1171875,62.8125 C30.1171875,43.4375 41.3671875,27.1875 58.2421875,18.4375 L49.4921875,2.8125 C48.2421875,0.9375 51.3671875,-0.9375 52.6171875,0.9375 L61.3671875,16.5625 C76.9921875,9.6875 95.1171875,10.3125 109.492188,16.5625 L118.242188,0.9375 C119.492188,-0.9375 122.617188,0.3125 121.367188,2.8125 L112.617188,18.4375 C130.117188,27.1875 141.367187,44.0625 141.367187,62.8125 Z M65.1171875,38.4375 C65.1171875,35.9375 63.2421875,34.0625 60.7421875,34.0625 C58.2421875,34.0625 56.3671875,35.9375 56.3671875,38.4375 C56.3671875,40.9375 58.2421875,42.8125 60.7421875,42.8125 C63.2421875,42.8125 65.1171875,40.9375 65.1171875,38.4375 Z M115.742187,38.4375 C115.742187,35.9375 113.867187,34.0625 111.367187,34.0625 C108.867187,34.0625 106.992187,35.9375 106.992187,38.4375 C106.992187,40.9375 108.867187,42.8125 111.367187,42.8125 C113.867187,42.8125 115.742187,40.9375 115.742187,38.4375 Z M158.242187,65.3125 C151.367187,65.3125 145.742187,70.9375 145.742187,77.8125 L145.742187,129.6875 C145.742187,136.5625 151.367187,142.1875 158.242187,142.1875 C165.117187,142.1875 171.367187,136.5625 171.367187,129.6875 L171.367187,77.8125 C171.367187,70.3125 164.492187,65.3125 158.242187,65.3125 Z" id="形状"></path>
        </g>
    </g>
</svg>