<?xml version="1.0" encoding="UTF-8"?>
<svg width="200px" height="158px" viewBox="0 0 200 158" version="1.1" xmlns="http://www.w3.org/2000/svg" xmlns:xlink="http://www.w3.org/1999/xlink">
    <!-- Generator: Sketch 55.2 (78181) - https://sketchapp.com -->
    <title>形状@1x</title>
    <desc>Created with Sketch.</desc>
    <g id="页面1" stroke="none" stroke-width="1" fill="none" fill-rule="evenodd">
        <g id="mac" transform="translate(0.000000, 0.093750)" fill="#4F5663" fill-rule="nonzero">
            <path d="M187.5,0.15625 C194.375,0.15625 200,5.78125 200,12.65625 L200,113.90625 C200,120.78125 194.375,126.40625 187.5,126.40625 L126.25,126.40625 L137.5,148.90625 C138.75,152.03125 137.5,155.78125 135,157.03125 C134.375,157.65625 133.125,157.65625 132.5,157.65625 L68.125,157.65625 C64.375,157.65625 61.875,155.15625 61.875,151.40625 C61.875,150.15625 61.875,149.53125 62.5,148.90625 L73.75,126.40625 L12.5,126.40625 C5.625,126.40625 0,120.78125 0,113.90625 L0,12.65625 C0,5.78125 5.625,0.15625 12.5,0.15625 L187.5,0.15625 Z M116.875,36.40625 C110,35.78125 103.75,40.15625 100,40.15625 C96.875,40.15625 91.875,36.40625 86.25,36.40625 C79.375,36.40625 72.5,40.78125 68.75,47.03125 C61.25,59.53125 66.875,78.90625 73.75,89.53125 L75,91.40625 C78.125,95.78125 81.875,100.78125 86.875,100.15625 C92.5,100.15625 94.375,96.40625 100.625,96.40625 C106.875,96.40625 108.75,100.15625 114.375,99.53125 C120,99.53125 123.75,94.53125 127.5,88.90625 C131.25,83.28125 133.125,77.03125 133.125,77.03125 L132.5,77.03125 C130,75.78125 121.875,71.40625 121.875,60.15625 C121.875,49.53125 130.625,44.53125 131.25,43.90625 C127.5,37.65625 120,36.40625 116.875,36.40625 Z M116.875,15.78125 C112.5,15.78125 107.5,18.90625 104.375,22.03125 C101.875,25.15625 99.375,30.15625 100,35.15625 C105,35.15625 109.375,32.65625 112.5,28.90625 C115,25.78125 117.5,20.78125 116.875,15.78125 L116.875,15.78125 Z" id="形状"></path>
        </g>
    </g>
</svg>