<?xml version="1.0" encoding="UTF-8"?>
<svg width="128px" height="126px" viewBox="0 0 128 126" version="1.1" xmlns="http://www.w3.org/2000/svg" xmlns:xlink="http://www.w3.org/1999/xlink">
    <!-- Generator: Sketch 55.2 (78181) - https://sketchapp.com -->
    <title>编组</title>
    <desc>Created with Sketch.</desc>
    <g id="页面1" stroke="none" stroke-width="1" fill="none" fill-rule="evenodd">
        <g id="编组" fill="#000000">
            <g id="calendar-check-fill" fill-rule="nonzero">
                <path d="M44.8,0 L44.8,12.5714285 L83.2,12.5714285 L83.2,0 L96,0 L96,12.5714285 L121.6,12.5714285 C125.134622,12.5714285 128,15.3856387 128,18.8571429 L128,119.428571 C128,122.900076 125.134622,125.714286 121.6,125.714286 L6.40000004,125.714286 C2.86537762,125.714286 0,122.900076 0,119.428571 L0,18.8571429 C0,15.3856387 2.86537762,12.5714285 6.40000004,12.5714285 L32,12.5714285 L32,0 L44.8,0 Z M115.2,43.9999999 L12.8000001,43.9999999 L12.8000001,113.142857 L115.2,113.142857 L115.2,43.9999999 L115.2,43.9999999 Z" id="形状"></path>
            </g>
            <rect id="矩形" x="48.5714286" y="92.5714286" width="30.2857143" height="9.14285714"></rect>
            <rect id="矩形" x="29.1428571" y="55.4285714" width="16" height="12.5714286"></rect>
            <rect id="矩形备份" x="82.8571429" y="55.4285714" width="16" height="12.5714286"></rect>
        </g>
    </g>
</svg>