<?xml version="1.0" standalone="no"?><!DOCTYPE svg PUBLIC "-//W3C//DTD SVG 1.1//EN" "http://www.w3.org/Graphics/SVG/1.1/DTD/svg11.dtd"><svg t="1705487614883" class="icon" viewBox="0 0 1024 1024" version="1.1" xmlns="http://www.w3.org/2000/svg" p-id="16872" xmlns:xlink="http://www.w3.org/1999/xlink" width="200" height="200"><path d="M427.733333 317.696c17.621333 16.341333 39.296 33.024 64.768 31.104s45.952-19.2 68.650667-29.269333c5.589333-2.688 15.018667-5.888 11.306667-14.037334-2.517333-7.210667-10.453333-4.266667-15.317334-1.706666-21.76 8.832-40.490667 25.898667-64.469333 28.885333-22.698667 2.304-39.594667-15.274667-56.448-27.392-6.912-4.053333-14.890667 7.424-8.490667 12.416z m435.882667 486.4c-4.608-15.658667-21.333333-23.808-25.856-39.466667-6.485333-19.328-8.192-41.301333-22.997333-56.746666a351.232 351.232 0 0 0-5.632-134.912c-15.530667-65.322667-50.176-124.970667-93.866667-175.317334-18.090667-19.2-36.778667-38.954667-46.378667-64-14.890667-35.328-10.410667-74.496-8.277333-111.744 1.92-50.346667-5.802667-104.746667-38.613333-145.066666-23.381333-29.056-60.586667-43.349333-96.981334-43.946667h-6.741333c-29.226667 0.725333-59.050667 7.850667-82.901333 25.344C401.92 82.346667 382.933333 122.453333 378.112 162.688c-5.248 51.2 2.986667 102.741333 1.109333 154.069333a159.146667 159.146667 0 0 1-19.882666 71.936c-15.488 29.354667-38.698667 53.418667-56.832 81.066667-32.554667 48.597333-56.661333 103.936-63.317334 162.389333a201.344 201.344 0 0 0 6.442667 82.261334 123.989333 123.989333 0 0 1-39.509333 29.866666c-15.018667 6.997333-31.914667 15.061333-38.4 31.488-8.533333 22.698667 4.266667 46.421333 0.64 69.546667-3.157333 13.269333-11.434667 25.216-11.050667 39.296A49.877333 49.877333 0 0 0 187.733333 932.010667c19.882667 8.832 41.898667 2.432 62.677334 5.802666 35.754667 4.266667 67.541333 22.570667 101.76 32.341334 32.426667 9.045333 68.266667-8.917333 83.2-38.4a376.234667 376.234667 0 0 1 174.933333 2.176 71.850667 71.850667 0 0 0 61.738667 45.013333h6.741333c34.986667-0.384 58.624-28.586667 80.853333-51.626667 19.157333-20.352 41.856-37.674667 68.565334-46.634666 30.165333-10.581333 45.44-47.317333 35.413333-76.757334zM521.6 176.341333a39.808 39.808 0 0 1 40.746667-8.533333c11.008 4.693333 17.066667 15.914667 20.608 26.794667a96.938667 96.938667 0 0 1-5.461334 67.882666l-13.909333-5.674666c3.754667-14.848 6.4-31.274667 0-45.824-4.266667-10.965333-19.157333-17.408-29.013333-9.770667s-13.184 20.650667-15.957334 32.597333c-6.826667-1.92-13.738667-3.498667-20.650666-4.992 2.261333-19.242667 8.661333-39.253333 23.637333-52.48z m17.536 97.493334c16.554667 8.789333 35.626667 12.8 50.688 24.192a13.184 13.184 0 0 1-0.768 20.906666c-14.848 12.416-33.792 18.261333-49.322667 29.866667-17.066667 11.349333-35.925333 27.050667-57.728 21.333333-17.493333-7.594667-30.933333-21.76-46.933333-31.530666-11.264-8.149333-28.16-16.768-26.026667-33.194667 5.589333-10.666667 18.474667-13.866667 27.904-20.266667 15.957333-8.234667 28.032-22.912 45.312-28.629333 21.205333-6.272 39.082667 8.704 56.874667 17.322667zM406.741333 192c5.589333-14.677333 25.6-17.962667 37.12-8.533333 15.274667 12.373333 18.773333 33.28 20.010667 51.797333q-6.101333 3.626667-12.16 7.424c-3.114667-11.818667-5.717333-33.322667-22.613333-30.72-17.493333 9.984-13.568 35.754667-5.76 51.2l-11.562667 6.144c-11.392-23.765333-15.786667-52.821333-5.034667-77.312zM336.042667 913.066667c-28.8-11.306667-58.197333-25.6-90.069334-23.466667-11.093333 0.981333-25.344-0.725333-30.293333-12.330667-5.973333-13.610667 7.210667-25.386667 6.613333-38.954666 2.048-14.378667-6.485333-29.269333-0.938666-43.050667 9.045333-10.624 24.32-12.586667 34.773333-21.333333 11.904-7.381333 18.56-20.565333 29.866667-28.416 8.789333-4.693333 18.090667 1.749333 23.850666 8.277333 15.914667 17.962667 24.234667 40.874667 36.010667 61.397333 13.354667 21.333333 36.608 37.717333 39.466667 64.256 1.493333 24.618667-26.922667 42.154667-49.28 33.621334z m305.92-252.501334a30.72 30.72 0 0 0-23.168 21.333334c-8.234667 28.245333-2.858667 58.282667-9.173334 86.826666a409.6 409.6 0 0 1-13.909333 43.52c-43.648 20.650667-96.981333 31.36-142.250667 9.557334a121.728 121.728 0 0 0-26.709333-40.96c16.042667-5.12 26.154667-23.936 18.730667-39.722667-10.581333-21.674667-32.512-34.133333-51.2-47.616-21.333333-15.146667-46.933333-27.861333-56.789334-53.802667-15.872-41.386667-0.512-87.082667 21.930667-122.88a203.861333 203.861333 0 0 0-8.277333 99.157334c2.048 10.069333 4.266667 20.608 9.984 29.269333 2.602667-50.645333 17.066667-101.077333 46.122666-143.061333 20.949333-29.866667 24.064-67.541333 24.405334-102.869334 16.170667 9.856 29.866667 23.082667 46.933333 32 20.053333 9.472 43.008 0.64 59.733333-11.562666A520.106667 520.106667 0 0 1 584.533333 392.192c11.093333 48.725333 35.157333 92.928 56.362667 137.728 13.866667 28.885333 28.373333 58.24 33.365333 90.24 11.178667-36.608 2.730667-75.434667-4.992-111.872 23.466667 34.133333 29.866667 75.989333 29.866667 116.522667 21.632 9.728 38.698667 30.208 40.96 54.272l-7.552-0.810667c-5.802667-18.176-22.186667-30.250667-38.826667-37.973333-12.16-5.290667-27.349333-9.045333-39.466666-1.706667-7.552 4.650667-9.984 13.866667-12.288 22.101333z m143.530666 193.237334c-23.125333 9.472-41.301333 27.392-57.514666 45.866666-8.533333 9.728-19.498667 18.261333-32.810667 19.029334a32.682667 32.682667 0 0 1-34.56-30.677334c-2.56-22.912 10.112-43.264 15.274667-64.853333 6.357333-23.509333 3.498667-48.128 6.912-72.021333a24.704 24.704 0 0 1 7.210666-15.488c2.944 12.8 8.533333 27.050667 22.272 31.317333 18.346667 5.589333 38.144-2.858667 51.84-15.104 7.253333 0.554667 16.426667 1.194667 19.797334 8.917333 5.290667 11.904 5.802667 25.6 13.269333 36.650667 5.418667 9.173333 16.085333 16.469333 15.445333 28.202667-0.768 14.890667-14.762667 23.424-27.136 28.288z" p-id="16873" fill="#4f5663"></path></svg>